# Blender v2.69 (sub 0) OBJ File: ''
# www.blender.org
mtllib test_level.mtl
o Cube
v 1.000000 -1.000000 -1.000000
v 1.000000 -1.000000 1.000000
v -1.000000 -1.000000 1.000000
v -1.000000 -1.000000 -1.000000
v 1.000000 1.000000 -0.999999
v 0.999999 1.000000 1.000001
v -1.000000 1.000000 1.000000
v -1.000000 1.000000 -1.000000
v 1.000000 -1.000000 -3.000000
v -1.000000 -1.000000 -3.000000
v 1.000000 1.000000 -3.000000
v -1.000000 1.000000 -3.000000
v 1.000000 -1.000000 3.000000
v -1.000000 -1.000000 3.000000
v 0.999999 1.000000 3.000000
v -1.000000 1.000000 3.000000
v 3.000000 -1.000000 -1.000000
v 3.000000 -1.000000 1.000000
v 3.000000 1.000000 -0.999999
v 2.999999 1.000000 1.000001
v 5.000000 -1.000000 -1.000000
v 5.000000 -1.000000 1.000000
v 5.000000 1.000000 -0.999999
v 4.999999 1.000000 1.000001
v 7.000000 -1.000000 -1.000000
v 7.000000 -1.000000 1.000000
v 7.000000 1.000000 -0.999999
v 6.999999 1.000000 1.000001
v 5.000000 -1.000000 -3.000000
v 5.000000 1.000000 -3.000000
v 7.000000 -1.000000 -3.000000
v 7.000000 1.000000 -3.000000
v 5.000000 -1.000000 -5.000000
v 5.000000 1.000000 -5.000000
v 7.000000 -1.000000 -5.000000
v 7.000000 1.000000 -5.000000
v 1.000000 -1.000000 5.000000
v -1.000000 -1.000000 5.000000
v 0.999999 1.000000 5.000000
v -1.000000 1.000000 5.000000
v 1.000000 -1.000000 7.000000
v -1.000000 -1.000000 7.000000
v 0.999999 1.000000 7.000000
v -1.000000 1.000000 7.000000
v -3.000000 -1.000000 5.000000
v -3.000000 1.000000 5.000000
v -3.000000 -1.000000 7.000000
v -3.000000 1.000000 7.000000
v -5.000000 -1.000000 5.000000
v -5.000000 1.000000 5.000000
v -5.000000 -1.000000 7.000000
v -5.000000 1.000000 7.000000
v -3.000000 -1.000000 1.000000
v -3.000000 -1.000000 -1.000000
v -3.000000 1.000000 1.000000
v -3.000000 1.000000 -1.000000
v -3.000000 -1.000000 -3.000000
v -3.000000 1.000000 -3.000000
v -3.000000 -1.000000 3.000000
v -3.000000 1.000000 3.000000
v -5.000000 -1.000000 1.000000
v -5.000000 -1.000000 -1.000000
v -5.000000 1.000000 1.000000
v -5.000000 1.000000 -1.000000
v -7.000000 -1.000000 1.000000
v -7.000000 -1.000000 -1.000000
v -7.000000 1.000000 1.000000
v -7.000000 1.000000 -1.000000
v -5.000000 -1.000000 -3.000000
v -5.000000 1.000000 -3.000000
v -7.000000 -1.000000 -3.000000
v -7.000000 1.000000 -3.000000
v -5.000000 -1.000000 -5.000000
v -5.000000 1.000000 -5.000000
v -7.000000 -1.000000 -5.000000
v -7.000000 1.000000 -5.000000
vt 0.000000 0.000000
vt 1.000000 0.000000
vt 1.000000 1.000000
vt 0.000000 1.000000
vn 0.000000 1.000000 0.000000
vn 0.000000 -1.000000 0.000000
vn 0.000000 -0.000000 -1.000000
vn -0.000000 -0.000000 1.000000
vn -1.000000 0.000000 0.000000
vn 1.000000 -0.000000 0.000000
usemtl Material
s off
f 1/1/1 4/2/1 3/3/1 2/4/1
f 5/1/2 6/2/2 7/3/2 8/4/2
f 5/1/2 19/2/2 20/3/2 6/4/2
f 6/1/2 15/2/2 16/3/2 7/4/2
f 14/1/3 59/2/3 60/3/3 16/4/3
f 8/1/2 12/2/2 11/3/2 5/4/2
f 11/1/4 12/2/4 10/3/4 9/4/4
f 16/1/2 60/2/2 55/3/2 7/4/2
f 5/1/5 11/2/5 9/3/5 1/4/5
f 1/1/1 9/2/1 10/3/1 4/4/1
f 15/1/2 39/2/2 40/3/2 16/4/2
f 3/1/1 53/2/1 59/3/1 14/4/1
f 2/1/5 13/2/5 15/3/5 6/4/5
f 3/1/1 14/2/1 13/3/1 2/4/1
f 19/1/2 23/2/2 24/3/2 20/4/2
f 6/1/3 20/2/3 18/3/3 2/4/3
f 1/1/4 17/2/4 19/3/4 5/4/4
f 2/1/1 18/2/1 17/3/1 1/4/1
f 23/1/2 27/2/2 28/3/2 24/4/2
f 20/1/3 24/2/3 22/3/3 18/4/3
f 17/1/4 21/2/4 23/3/4 19/4/4
f 18/1/1 22/2/1 21/3/1 17/4/1
f 25/1/5 26/2/5 28/3/5 27/4/5
f 24/1/3 28/2/3 26/3/3 22/4/3
f 25/1/1 31/2/1 29/3/1 21/4/1
f 22/1/1 26/2/1 25/3/1 21/4/1
f 31/1/1 35/2/1 33/3/1 29/4/1
f 23/1/2 30/2/2 32/3/2 27/4/2
f 27/1/5 32/2/5 31/3/5 25/4/5
f 21/1/6 29/2/6 30/3/6 23/4/6
f 33/1/4 35/2/4 36/3/4 34/4/4
f 30/1/2 34/2/2 36/3/2 32/4/2
f 32/1/5 36/2/5 35/3/5 31/4/5
f 29/1/6 33/2/6 34/3/6 30/4/6
f 39/1/2 43/2/2 44/3/2 40/4/2
f 16/1/6 40/2/6 38/3/6 14/4/6
f 13/1/5 37/2/5 39/3/5 15/4/5
f 14/1/1 38/2/1 37/3/1 13/4/1
f 41/1/3 42/2/3 44/3/3 43/4/3
f 38/1/1 45/2/1 47/3/1 42/4/1
f 37/1/5 41/2/5 43/3/5 39/4/5
f 38/1/1 42/2/1 41/3/1 37/4/1
f 45/1/1 49/2/1 51/3/1 47/4/1
f 44/1/2 48/2/2 46/3/2 40/4/2
f 42/1/3 47/2/3 48/3/3 44/4/3
f 40/1/4 46/2/4 45/3/4 38/4/4
f 50/1/6 52/2/6 51/3/6 49/4/6
f 48/1/2 52/2/2 50/3/2 46/4/2
f 47/1/3 51/2/3 52/3/3 48/4/3
f 46/1/4 50/2/4 49/3/4 45/4/4
f 55/1/2 63/2/2 64/3/2 56/4/2
f 54/1/6 57/2/6 58/3/6 56/4/6
f 55/1/6 60/2/6 59/3/6 53/4/6
f 10/1/1 57/2/1 54/3/1 4/4/1
f 8/1/2 56/2/2 58/3/2 12/4/2
f 12/1/4 58/2/4 57/3/4 10/4/4
f 7/1/2 55/2/2 56/3/2 8/4/2
f 4/1/1 54/2/1 53/3/1 3/4/1
f 63/1/2 67/2/2 68/3/2 64/4/2
f 56/1/4 64/2/4 62/3/4 54/4/4
f 53/1/3 61/2/3 63/3/3 55/4/3
f 54/1/1 62/2/1 61/3/1 53/4/1
f 65/1/6 66/2/6 68/3/6 67/4/6
f 62/1/1 69/2/1 71/3/1 66/4/1
f 61/1/3 65/2/3 67/3/3 63/4/3
f 62/1/1 66/2/1 65/3/1 61/4/1
f 69/1/1 73/2/1 75/3/1 71/4/1
f 68/1/2 72/2/2 70/3/2 64/4/2
f 66/1/6 71/2/6 72/3/6 68/4/6
f 64/1/5 70/2/5 69/3/5 62/4/5
f 74/1/4 76/2/4 75/3/4 73/4/4
f 72/1/2 76/2/2 74/3/2 70/4/2
f 71/1/6 75/2/6 76/3/6 72/4/6
f 70/1/5 74/2/5 73/3/5 69/4/5
